<svg id="Layer_1" data-name="Layer 1" xmlns="http://www.w3.org/2000/svg" viewBox="0 0 200 200"><defs><style>.cls-1{fill:#ed2024;}.cls-2{fill:#62449b;}.cls-3{fill:#f79868;}.cls-4{fill:#f26739;}.cls-5{fill:#ffcd05;}.cls-6{fill:#1c3664;}.cls-7{fill:none;stroke:#1c3664;stroke-miterlimit:10;stroke-width:6px;}</style></defs><path class="cls-1" d="M138.46,134.19c0,23.79-15.89,43.08-35.49,43.08S67.48,158,67.48,134.19s15.89-42,35.49-42S138.46,110.4,138.46,134.19Z"/><path class="cls-2" d="M126.92,123.15V111.77c0-3.92-.15-11.21-7.23-11.21s-7,7.29-7,11.21v6.58a55.54,55.54,0,0,0-9.76-.87,54.56,54.56,0,0,0-9.49.83v-6.54c0-3.92-.32-11.21-7.23-11.21s-7,7.29-7,11.21V123c-11.68,6-19.4,16.32-19.4,28.05,0,18.54,19.29,33.58,43.08,33.58s43.08-15,43.08-33.58C146.05,139.42,138.46,129.17,126.92,123.15Z"/><circle class="cls-3" cx="102.97" cy="71.92" r="29.6"/><path class="cls-4" d="M74.35,49.07a29.11,29.11,0,1,1,58.22,0"/><path class="cls-5" d="M66.2,56.2c1-14.2,7.34-24.74,20.19-32.1C87.33,29.57,87.9,34.39,89.1,39c.44,1.68,2.48,4.25,3.64,4.17,3.13-.2,2.31-2.94,1.92-5.13C93.84,33.44,93,28.8,92.3,24.15s.76-6.74,5.59-7a97,97,0,0,1,10.37,0c4.66.24,6.36,2.43,5.62,7-.78,4.8-1.89,9.57-2.37,14.39-.16,1.56-.66,4.47,1.92,4.92s3.12-2.47,3.51-4c1.23-4.81,1.88-9.77,2.88-15.4C131,30.5,137.45,39.36,139.37,51.38c.46,2.85.54,5.11,4.06,6.25,1.46.48,3.06,3.88,2.73,5.59s-2.86,3.48-4.77,4c-2.47.7-5.29.22-8,.22H66.49c-3.23,0-6.18-.58-6.68-4.4-.53-4.11,1.88-6,5.7-6.51C65.66,56.55,65.79,56.42,66.2,56.2Z"/><path class="cls-6" d="M79.52,135.88a18.52,18.52,0,0,0,12.92,34l-9.41-15,12-7.56,9.43,15a18.52,18.52,0,0,0-25-26.43Z"/><path class="cls-6" d="M59.13,94.59A18.52,18.52,0,0,0,42.52,63.7l9.42,15-12,7.56-9.43-15A18.51,18.51,0,0,0,51.09,99.65L75.5,138.41l4-2.53,4-2.53Z"/><circle class="cls-3" cx="67.25" cy="116.4" r="10.22"/><circle class="cls-6" cx="94" cy="75.02" r="3.5"/><path class="cls-6" d="M109.42,85.32a6,6,0,0,1-11.92,0Z"/><circle class="cls-6" cx="112.92" cy="75.02" r="3.5"/><circle class="cls-7" cx="101.73" cy="100.82" r="90.93"/></svg>